<?xml version="1.0" encoding="utf-8"?>
<!-- Generator: Adobe Illustrator 16.0.0, SVG Export Plug-In . SVG Version: 6.00 Build 0)  -->
<!DOCTYPE svg PUBLIC "-//W3C//DTD SVG 1.1//EN" "http://www.w3.org/Graphics/SVG/1.1/DTD/svg11.dtd">
<svg version="1.1" id="Layer_1" xmlns="http://www.w3.org/2000/svg" xmlns:xlink="http://www.w3.org/1999/xlink" x="0px" y="0px"
	 width="772.499px" height="927px" viewBox="0 0 772.499 927" enable-background="new 0 0 772.499 927" xml:space="preserve">
<g>
	<path fill="#3477BC" d="M772.499,38.627c0-38.625,0-38.625-38.625-38.625s-38.625,0-38.625,0H424.874L38.624,0
		c0,0-38.625,0-38.625,38.625S38.624,77.25,38.624,77.25l309,0.002c0,0,138.838,0,231.75,0v0.002v347.622
		c0,0,77.25-38.625,77.25-77.252s0-270.37,0-270.37v-0.002h0.008c38.635,0,38.617,38.625,38.617,38.625V231.75h77.25
		C772.499,231.75,772.499,77.252,772.499,38.627z"/>
	<path fill="#3477BC" d="M540.749,463.501c0-38.625,0-309,0-309s0-38.625-38.625-38.625l-193.125-0.002v0.002l-270.375-0.002
		c0,0-38.625,0-38.625,38.625s38.625,38.625,38.625,38.625l193.125,0.002h231.75v347.625
		C463.499,540.751,540.749,502.126,540.749,463.501z"/>
	<path fill="#3477BC" d="M347.624,656.624c0,0,77.25-38.623,77.25-77.248s0-309.002,0-309.002s-77.25,38.627-77.25,77.25
		C347.624,386.248,347.624,656.624,347.624,656.624z"/>
	<path fill="#3477BC" d="M733.874,618.001l-77.25-0.002l-77.25,77.252h154.5c0,0,38.625,0,38.625-38.625
		C772.499,618.001,733.874,618.001,733.874,618.001z"/>
	<path fill="#3477BC" d="M733.874,733.876H540.749h-231.75V386.251c0,0-77.25,38.625-77.25,77.25s0,347.625,0,347.625h231.75
		h270.375c0,0,38.625,0,38.625-38.625S733.874,733.876,733.874,733.876z"/>
	<path fill="#3477BC" d="M733.874,849.751h-309c0,0-138.838,0-231.75,0V502.126c0,0-77.25,38.625-77.25,77.25s0,270.375,0,270.375
		h-0.008c-38.633,0-38.617-38.625-38.617-38.625V695.251v-77.252c0,0-77.25,38.627-77.25,77.252c0,0,0,154.5,0,193.123
		c0,38.623,38.625,38.627,38.625,38.627c5.047,0,11.221,0,17.156,0c11.184,0,21.469,0,21.469,0h270.375h386.25
		c0,0,38.625,0,38.625-38.625C772.499,849.751,733.874,849.751,733.874,849.751z"/>
	<path fill="#3477BC" d="M38.624,309l77.25,0.002l77.25-77.252h-154.5c0,0-38.625,0-38.625,38.625C-0.001,309,38.624,309,38.624,309
		z"/>
	<path fill="#3477BC" d="M772.499,231.752l-77.25-0.002v77.252C695.249,309.002,772.499,270.377,772.499,231.752z"/>
</g>
</svg>
